<svg width="19" height="19" viewBox="0 0 19 19" fill="none" xmlns="http://www.w3.org/2000/svg">
<path d="M8.82209 1.63377C8.82287 1.89796 8.92817 2.1511 9.11498 2.3379C9.30178 2.52471 9.55492 2.63001 9.81911 2.63079L14.9244 2.60251L0.485284 17.0416C0.297748 17.2292 0.19239 17.4835 0.19239 17.7488C0.19239 18.014 0.297747 18.2683 0.485283 18.4559C0.672819 18.6434 0.927173 18.7488 1.19239 18.7488C1.45761 18.7488 1.71196 18.6434 1.8995 18.4559L16.3316 4.02379L16.3316 9.14325C16.331 9.27526 16.3566 9.40607 16.4069 9.52813C16.4572 9.6502 16.5311 9.76111 16.6244 9.85445C16.7178 9.9478 16.8287 10.0217 16.9508 10.072C17.0728 10.1223 17.2036 10.1479 17.3357 10.1473C17.5998 10.1466 17.853 10.0413 18.0398 9.85445C18.2266 9.66764 18.3319 9.4145 18.3327 9.15032L18.3397 3.61367C18.3393 2.81866 18.0232 2.05636 17.4611 1.49421C16.8989 0.932061 16.1366 0.616029 15.3416 0.615534L9.81911 0.636751C9.55492 0.637537 9.30178 0.742832 9.11498 0.92964C8.92817 1.11645 8.82287 1.36959 8.82209 1.63377Z" fill="#374957"/>
</svg>
