<svg width="14" height="16" viewBox="0 0 14 16" fill="none" xmlns="http://www.w3.org/2000/svg">
<path d="M10.3334 9.33335C10.3334 9.51016 10.2632 9.67973 10.1382 9.80475C10.0131 9.92978 9.84358 10 9.66677 10H4.33343C4.15662 10 3.98705 9.92978 3.86203 9.80475C3.737 9.67973 3.66677 9.51016 3.66677 9.33335C3.66677 9.15654 3.737 8.98697 3.86203 8.86194C3.98705 8.73692 4.15662 8.66668 4.33343 8.66668H9.66677C9.84358 8.66668 10.0131 8.73692 10.1382 8.86194C10.2632 8.98697 10.3334 9.15654 10.3334 9.33335ZM7.66677 11.3333H4.33343C4.15662 11.3333 3.98705 11.4036 3.86203 11.5286C3.737 11.6536 3.66677 11.8232 3.66677 12C3.66677 12.1768 3.737 12.3464 3.86203 12.4714C3.98705 12.5964 4.15662 12.6667 4.33343 12.6667H7.66677C7.84358 12.6667 8.01315 12.5964 8.13817 12.4714C8.2632 12.3464 8.33343 12.1768 8.33343 12C8.33343 11.8232 8.2632 11.6536 8.13817 11.5286C8.01315 11.4036 7.84358 11.3333 7.66677 11.3333ZM13.6668 6.99002V12.6667C13.6657 13.5504 13.3142 14.3976 12.6893 15.0225C12.0644 15.6474 11.2172 15.999 10.3334 16H3.66677C2.78304 15.999 1.93581 15.6474 1.31091 15.0225C0.686021 14.3976 0.334492 13.5504 0.333433 12.6667V3.33335C0.334492 2.44962 0.686021 1.60239 1.31091 0.977495C1.93581 0.352603 2.78304 0.00107394 3.66677 1.53658e-05H6.67677C7.28985 -0.00156258 7.89716 0.118407 8.46358 0.352988C9.03001 0.587569 9.54432 0.932107 9.97677 1.36668L12.2994 3.69068C12.7343 4.12284 13.079 4.63699 13.3137 5.20333C13.5484 5.76968 13.6684 6.37696 13.6668 6.99002V6.99002ZM9.0341 2.30935C8.82429 2.10612 8.58872 1.9313 8.33343 1.78935V4.66668C8.33343 4.84349 8.40367 5.01306 8.5287 5.13809C8.65372 5.26311 8.82329 5.33335 9.0001 5.33335H11.8774C11.7354 5.07814 11.5603 4.84278 11.3568 4.63335L9.0341 2.30935ZM12.3334 6.99002C12.3334 6.88002 12.3121 6.77468 12.3021 6.66668H9.0001C8.46967 6.66668 7.96096 6.45597 7.58589 6.0809C7.21081 5.70582 7.0001 5.19712 7.0001 4.66668V1.36468C6.8921 1.35468 6.7861 1.33335 6.67677 1.33335H3.66677C3.13633 1.33335 2.62763 1.54406 2.25255 1.91914C1.87748 2.29421 1.66677 2.80292 1.66677 3.33335V12.6667C1.66677 13.1971 1.87748 13.7058 2.25255 14.0809C2.62763 14.456 3.13633 14.6667 3.66677 14.6667H10.3334C10.8639 14.6667 11.3726 14.456 11.7476 14.0809C12.1227 13.7058 12.3334 13.1971 12.3334 12.6667V6.99002Z" fill="white"/>
</svg>
